# xmcd CD database file
#
# Track frame offsets:
#	187
#	9917
#	22875
#	39300
#	51175
#	63615
#	77842
#	92595
#	106655
#	119502
#	134300
#	143555
#
# Disc length: 2159 seconds
#
# Revision: 2
# Processed by: cddbd v1.4PL0 Copyright (c) Steve Scherf et al.
# Submitted via: CDex 1.50
#
DISCID=8f086d0c
DTITLE=Hot Rize - Untold Stories
DYEAR=1987
DGENRE=Bluegrass
TTITLE0=Are You Tired Of Me, My Darlin'
TTITLE1=Untold Stories
TTITLE2=Just Like You
TTITLE3=Country Blues
TTITLE4=Bluegrass Part Three
TTITLE5=Won't You Come and Sing For Me
TTITLE6=Life's Too Short
TTITLE7=You Don't Have To Move The Mountain
TTITLE8=Shadows In My Room
TTITLE9=Don't Make Me Believe
TTITLE10=Wild Ride
TTITLE11=Late In The Day
EXTD=YEAR: 1987
EXTT0=
EXTT1=
EXTT2=
EXTT3=
EXTT4=
EXTT5=
EXTT6=
EXTT7=
EXTT8=
EXTT9=
EXTT10=
EXTT11=
PLAYORDER=
